<svg width="175" height="50" viewBox="0 0 175 50" fill="none" xmlns="http://www.w3.org/2000/svg">
<path d="M0 2C0 0.895432 0.895431 0 2 0H173C174.105 0 175 0.895431 175 2V48C175 49.1046 174.105 50 173 50H2C0.895435 50 0 49.1046 0 48V2Z" fill="#9D8665"/>
<path d="M40.5078 33V17.3594H45.127C46.8027 17.3594 48.0739 17.7067 48.9404 18.4014C49.807 19.0889 50.2402 20.1058 50.2402 21.4521C50.2402 22.2614 50.0182 22.9668 49.5742 23.5684C49.1374 24.1628 48.5358 24.5889 47.7695 24.8467C48.679 25.0472 49.4095 25.4948 49.9609 26.1895C50.5195 26.8841 50.7988 27.6862 50.7988 28.5957C50.7988 29.9779 50.3512 31.0592 49.4561 31.8398C48.568 32.6133 47.3291 33 45.7393 33H40.5078ZM41.8291 25.4805V31.8828H45.793C46.9245 31.8828 47.8197 31.5964 48.4785 31.0234C49.1445 30.4434 49.4775 29.6413 49.4775 28.6172C49.4775 27.6504 49.1589 26.8877 48.5215 26.3291C47.8913 25.7633 47.0176 25.4805 45.9004 25.4805H41.8291ZM41.8291 24.374H45.4385C46.5413 24.3525 47.3936 24.0947 47.9951 23.6006C48.6038 23.0993 48.9082 22.3724 48.9082 21.4199C48.9082 20.4173 48.5931 19.6797 47.9629 19.207C47.3398 18.7272 46.3945 18.4873 45.127 18.4873H41.8291V24.374ZM63.1758 31.5283C62.4023 32.6527 61.167 33.2148 59.4697 33.2148C58.2308 33.2148 57.2891 32.8568 56.6445 32.1406C56 31.4173 55.6706 30.3503 55.6562 28.9395V21.377H56.9346V28.7783C56.9346 30.9912 57.8298 32.0977 59.6201 32.0977C61.4821 32.0977 62.6602 31.3278 63.1543 29.7881V21.377H64.4434V33H63.1973L63.1758 31.5283ZM73.4795 31.1523L76.874 21.377H78.2598L73.2969 34.9766L73.0391 35.5781C72.4017 36.9889 71.417 37.6943 70.085 37.6943C69.777 37.6943 69.4476 37.6442 69.0967 37.5439L69.0859 36.4805L69.752 36.5449C70.3822 36.5449 70.8906 36.3874 71.2773 36.0723C71.6712 35.7643 72.0042 35.2308 72.2764 34.4717L72.8457 32.9033L68.4629 21.377H69.8701L73.4795 31.1523ZM101.553 33H100.231L91.2402 19.6152V33H89.9082V17.3594H91.2402L100.242 30.7549V17.3594H101.553V33ZM106.518 27.0166C106.518 25.8994 106.732 24.8932 107.162 23.998C107.599 23.1029 108.211 22.4082 108.999 21.9141C109.794 21.4128 110.693 21.1621 111.695 21.1621C113.242 21.1621 114.495 21.7064 115.455 22.7949C116.415 23.8763 116.895 25.3122 116.895 27.1025V27.3711C116.895 28.4954 116.676 29.5088 116.239 30.4111C115.81 31.3063 115.201 31.9974 114.413 32.4844C113.625 32.9714 112.727 33.2148 111.717 33.2148C110.177 33.2148 108.924 32.6742 107.957 31.5928C106.997 30.5042 106.518 29.0648 106.518 27.2744V27.0166ZM107.807 27.3711C107.807 28.7604 108.165 29.9027 108.881 30.7979C109.604 31.6859 110.549 32.1299 111.717 32.1299C112.877 32.1299 113.815 31.6859 114.531 30.7979C115.255 29.9027 115.616 28.7246 115.616 27.2637V27.0166C115.616 26.1286 115.451 25.3158 115.122 24.5781C114.793 23.8405 114.331 23.2712 113.736 22.8701C113.142 22.4619 112.462 22.2578 111.695 22.2578C110.549 22.2578 109.615 22.709 108.892 23.6113C108.168 24.5065 107.807 25.681 107.807 27.1348V27.3711ZM124.341 30.3252L124.534 31.3242L124.792 30.2715L127.585 21.377H128.681L131.441 30.1963L131.742 31.4209L131.989 30.293L134.374 21.377H135.706L132.322 33H131.227L128.24 23.7832L128.101 23.1494L127.961 23.7939L125.028 33H123.933L120.56 21.377H121.881L124.341 30.3252Z" fill="black"/>
</svg>
